<svg xmlns="http://www.w3.org/2000/svg" viewBox="0 0 873 775" width="873" height="775" font-family="IPAGothic, Noto Sans JP, Hiragino Sans, sans-serif" role="img" aria-label="OP030-A の立面図。腕の上に用力主管と照明があり、天井下端は 7.200 m。設置方法の候補を重ねてある。">
<rect width="873" height="775" fill="#ffffff"/>
<text x="24" y="32" font-size="17" font-weight="700" fill="#16181d">設置方法 — セル上方に何があるか（立面・実測）</text>
<text x="24" y="54" font-size="12" fill="#7a7f87">斜線＝箱が実物より大きいと分かっているもの（三角形接触 0 件）。空き帯は箱の外側という意味でしかない</text>
<defs><pattern id="coarse" width="8" height="8" patternUnits="userSpaceOnUse"><path d="M0,8 L8,0" stroke="#7a7f87" stroke-width="1" opacity="0.6"/></pattern></defs>
<line x1="96.0" y1="729.6" x2="543.2" y2="729.6" stroke="#16181d" stroke-width="2"/>
<text x="96.0" y="747.6" font-size="11" fill="#7a7f87">床 Z=0</text>
<rect x="96.0" y="96.6" width="447.2" height="13.8" fill="#16181d" opacity="0.75"/>
<text x="551.2" y="114.4" font-size="12" fill="#16181d">天井下端 7.200</text>
<line x1="90.0" y1="643.6" x2="96.0" y2="643.6" stroke="#7a7f87" stroke-width="1"/>
<text x="86.0" y="647.6" font-size="10" text-anchor="end" fill="#7a7f87">1</text>
<line x1="90.0" y1="557.6" x2="96.0" y2="557.6" stroke="#7a7f87" stroke-width="1"/>
<text x="86.0" y="561.6" font-size="10" text-anchor="end" fill="#7a7f87">2</text>
<line x1="90.0" y1="471.6" x2="96.0" y2="471.6" stroke="#7a7f87" stroke-width="1"/>
<text x="86.0" y="475.6" font-size="10" text-anchor="end" fill="#7a7f87">3</text>
<line x1="90.0" y1="385.6" x2="96.0" y2="385.6" stroke="#7a7f87" stroke-width="1"/>
<text x="86.0" y="389.6" font-size="10" text-anchor="end" fill="#7a7f87">4</text>
<line x1="90.0" y1="299.6" x2="96.0" y2="299.6" stroke="#7a7f87" stroke-width="1"/>
<text x="86.0" y="303.6" font-size="10" text-anchor="end" fill="#7a7f87">5</text>
<line x1="90.0" y1="213.6" x2="96.0" y2="213.6" stroke="#7a7f87" stroke-width="1"/>
<text x="86.0" y="217.6" font-size="10" text-anchor="end" fill="#7a7f87">6</text>
<line x1="90.0" y1="127.6" x2="96.0" y2="127.6" stroke="#7a7f87" stroke-width="1"/>
<text x="86.0" y="131.6" font-size="10" text-anchor="end" fill="#7a7f87">7</text>
<rect x="146.7" y="437.2" width="8.6" height="116.1" fill="url(#coarse)" opacity="0.9" stroke="#7a7f87" stroke-width="1"/>
<rect x="156.6" y="437.2" width="8.6" height="116.1" fill="#7a7f87" opacity="0.35" stroke="#7a7f87" stroke-width="1"/>
<rect x="228.4" y="437.2" width="81.5" height="116.1" fill="url(#coarse)" opacity="0.9" stroke="#7a7f87" stroke-width="1"/>
<rect x="398.1" y="437.2" width="82.3" height="116.1" fill="url(#coarse)" opacity="0.9" stroke="#7a7f87" stroke-width="1"/>
<text x="319.6" y="414.1" font-size="11" text-anchor="middle" fill="#7a7f87">Z 3.40–4.03 空き</text>
<rect x="269.7" y="230.8" width="13.8" height="152.2" fill="#7a7f87" opacity="0.35" stroke="#7a7f87" stroke-width="1"/>
<rect x="424.5" y="230.8" width="13.8" height="152.2" fill="#7a7f87" opacity="0.35" stroke="#7a7f87" stroke-width="1"/>
<text x="319.6" y="174.6" font-size="11" text-anchor="middle" fill="#7a7f87">Z 5.80–7.20 空き</text>
<rect x="262.0" y="589.8" width="36.5" height="108.0" fill="#16181d" opacity="0.5"/>
<circle cx="276.6" cy="596.9" r="7" fill="none" stroke="#c0392b" stroke-width="2.5"/>
<text x="262.6" y="600.9" font-size="11" text-anchor="end" fill="#c0392b">肩 1.543</text>
<rect x="323.9" y="647.9" width="60.2" height="10.3" fill="#16181d" opacity="0.35"/>
<text x="354.0" y="665.1" font-size="11" text-anchor="middle" fill="#7a7f87">製品</text>
<line x1="276.6" y1="729.6" x2="276.6" y2="589.8" stroke="#c0392b" stroke-width="3" opacity="0.85" stroke-linecap="round"/>
<line x1="292.1" y1="110.4" x2="292.1" y2="596.9" stroke="#7d3c98" stroke-width="3" opacity="0.85" stroke-linecap="round" stroke-dasharray="8 5"/>
<line x1="194.9" y1="729.6" x2="194.9" y2="420.0" stroke="#1f6f8b" stroke-width="3" opacity="0.85" stroke-linecap="round"/>
<line x1="261.1" y1="444.1" x2="261.1" y2="596.9" stroke="#b9770e" stroke-width="3" opacity="0.85" stroke-linecap="round" stroke-dasharray="8 5"/>
<line x1="194.9" y1="420.0" x2="483.0" y2="420.0" stroke="#1f6f8b" stroke-width="3" opacity="0.85"/>
<line x1="483.0" y1="420.0" x2="483.0" y2="729.6" stroke="#1f6f8b" stroke-width="3" opacity="0.85"/>
<line x1="551.2" y1="182" x2="577.2" y2="182" stroke="#c0392b" stroke-width="3"/>
<text x="585.2" y="186" font-size="12.5" font-weight="600" fill="#16181d">① 床置き支柱（現行）</text>
<text x="585.2" y="203" font-size="11" fill="#7a7f87">床面積 0.425×0.631 m を占める</text>
<line x1="551.2" y1="228" x2="577.2" y2="228" stroke="#7d3c98" stroke-width="3"/>
<text x="585.2" y="232" font-size="12.5" font-weight="600" fill="#16181d">② 天井吊り</text>
<text x="585.2" y="249" font-size="11" fill="#7a7f87">照明 4.03–5.73 を貫く。垂れ 5.7 m</text>
<line x1="551.2" y1="274" x2="577.2" y2="274" stroke="#1f6f8b" stroke-width="3"/>
<text x="585.2" y="278" font-size="12.5" font-weight="600" fill="#16181d">③ 門型（脚は外側・梁 3.6）</text>
<text x="585.2" y="295" font-size="11" fill="#7a7f87">脚は空き帯 −2.19..−1.46 に立つ</text>
<line x1="551.2" y1="320" x2="577.2" y2="320" stroke="#b9770e" stroke-width="3"/>
<text x="585.2" y="324" font-size="12.5" font-weight="600" fill="#16181d">④ 用力架構から吊る</text>
<text x="585.2" y="341" font-size="11" fill="#7a7f87">既設の架構に載せる。箱は実物より大</text>
</svg>
